<svg width="51" height="45" viewBox="0 0 51 45" fill="none" xmlns="http://www.w3.org/2000/svg">
<path d="M7.55916 4.88306L10.8248 36.7721L25.4777 40.3133L40.1721 36.7665L43.4408 4.88306H7.55916ZM36.6563 12.1764L35.5518 22.9541L34.7868 30.3904L34.7198 31.0509L25.5064 33.2753L16.3057 31.0509L15.6761 24.9093H20.1848L20.5052 28.0286L25.5128 29.204L25.5255 29.2012H25.5287L30.5235 28.0273L31.0478 22.9555H20.5626L20.4733 22.0771L20.2677 20.0942L20.1609 19.0452H31.4463L31.8575 15.0405H14.6673L14.578 14.1607L14.3724 12.1778L14.2657 11.1288H36.7662L36.6578 12.1778L36.6563 12.1764Z" fill="#00D4FF"/>
</svg>
