<svg width="30" height="30" viewBox="0 0 30 30" fill="none" xmlns="http://www.w3.org/2000/svg">
<g clip-path="url(#clip0_24_50)">
<path d="M14.9999 0C23.2837 0 30 6.71625 30 15.0001C30 23.2839 23.2838 30 15.0001 30C6.71635 30 0 23.2838 0 15.0001C0 6.71635 6.71532 0 14.9999 0Z" fill="#08086E"/>
<path d="M20.1768 6.56067H9.82222C8.02316 6.56067 6.56064 8.02412 6.56064 9.82225V20.1779C6.56064 21.977 8.02409 23.4395 9.82222 23.4395H20.1779C21.9769 23.4395 23.4395 21.976 23.4395 20.1779V9.82225C23.4394 8.02412 21.9759 6.56067 20.1768 6.56067ZM21.2044 8.44788L21.5738 8.44695V11.2482L18.7519 11.2576L18.7425 8.45632L21.2044 8.44788ZM15.0001 12.1763C17.341 12.1763 17.8238 14.3738 17.8238 15.0009C17.8238 16.5562 16.5563 17.8237 15.0001 17.8237C13.4429 17.8237 12.1763 16.5562 12.1763 15.0009C12.1753 14.3738 12.6591 12.1763 15.0001 12.1763ZM21.5897 19.9735C21.5897 20.8651 20.8651 21.5907 19.9716 21.5907H9.99657C9.10404 21.5907 8.37844 20.866 8.37844 19.9735V13.1213H10.7222C10.5047 13.6566 10.3818 14.3879 10.3818 15.001C10.3818 17.5454 12.4518 19.6164 14.9972 19.6164C17.5425 19.6164 19.6115 17.5454 19.6115 15.001C19.6115 14.3879 19.4886 13.6566 19.2721 13.1213H21.5877V19.9735H21.5897Z" fill="white"/>
</g>
<defs>
<clipPath id="clip0_24_50">
<rect width="30" height="30" fill="white"/>
</clipPath>
</defs>
</svg>
