<svg width="40" height="40" viewBox="0 0 40 40" fill="none" xmlns="http://www.w3.org/2000/svg">
<g clip-path="url(#clip0_19_29)">
<path d="M38.7202 0H1.27978C0.572959 0 0 0.573087 0 1.27978V38.7202C0 39.4269 0.572959 40 1.27978 40H38.7202C39.427 40 40 39.4269 40 38.7202V1.27978C40 0.573087 39.427 0 38.7202 0ZM18.3809 22.2339C18.3809 24.6162 17.0456 26.0962 14.8958 26.0962C13.5456 26.0962 12.339 25.4189 11.4983 24.1892C11.1266 23.6451 11.2661 22.9026 11.8101 22.5307C12.3543 22.1588 13.0969 22.2986 13.4686 22.8425C13.862 23.4181 14.3421 23.7099 14.8958 23.7099C15.3333 23.7099 15.9946 23.7099 15.9946 22.2341V16.1593H12.7344C12.0754 16.1593 11.5412 15.6251 11.5412 14.9662C11.5412 14.3072 12.0754 13.773 12.7344 13.773H17.1877C17.8467 13.773 18.3809 14.3072 18.3809 14.9662V22.2339ZM24.2443 26.3123C22.6447 26.3123 21.0128 25.6379 19.9853 24.5523C19.5323 24.0736 19.5532 23.3183 20.0317 22.8654C20.5104 22.4123 21.2659 22.4332 21.7186 22.9117C22.2927 23.5183 23.3077 23.9259 24.2443 23.9259C25.2033 23.9259 26.3232 23.6459 26.3232 22.8572C26.3294 22.1136 25.9335 21.8351 24.0945 21.2781C22.4721 20.7867 20.0203 20.0441 20.0203 17.2179C20.0203 15.1063 21.8511 13.6875 24.5762 13.6875C25.7893 13.6875 27.1121 14.0553 28.0284 14.6476C28.5818 15.0053 28.7405 15.744 28.3828 16.2975C28.0249 16.8509 27.2863 17.0096 26.7329 16.6519C26.2066 16.3117 25.3197 16.0739 24.5762 16.0739C23.5754 16.0739 22.4067 16.3737 22.4067 17.2179C22.4067 18.1349 22.9428 18.4358 24.7863 18.9942C26.3575 19.47 28.7319 20.1891 28.7096 22.867C28.7095 24.9238 26.9151 26.3123 24.2443 26.3123Z" fill="#00D4FF"/>
</g>
<defs>
<clipPath id="clip0_19_29">
<rect width="40" height="40" fill="white"/>
</clipPath>
</defs>
</svg>
