<svg width="30" height="30" viewBox="0 0 30 30" fill="none" xmlns="http://www.w3.org/2000/svg">
<g clip-path="url(#clip0_24_11)">
<path d="M15.0003 29.9997C23.2845 29.9997 30.0002 23.2841 30.0002 14.9999C30.0002 6.71567 23.2845 0 15.0003 0C6.71612 0 0.000454903 6.71567 0.000454903 14.9999C0.000454903 23.2841 6.71612 29.9997 15.0003 29.9997Z" fill="#08086E"/>
<path d="M24.1881 10.78C23.5453 11.065 22.8538 11.2578 22.1287 11.3439C22.8691 10.9003 23.4373 10.1984 23.7054 9.36067C23.0126 9.77165 22.245 10.0698 21.4286 10.2305C20.7746 9.53394 19.8428 9.09863 18.8109 9.09863C16.8312 9.09863 15.2255 10.7043 15.2255 12.684C15.2255 12.965 15.2574 13.2386 15.3189 13.5012C12.3391 13.3517 9.69705 11.9244 7.92855 9.75453C7.61999 10.284 7.44298 10.9003 7.44298 11.5573C7.44298 12.8009 8.07642 13.8988 9.03794 14.5416C8.45049 14.5231 7.89727 14.3619 7.4141 14.0926C7.41383 14.1079 7.41383 14.1231 7.41383 14.1381C7.41383 15.8753 8.65023 17.3243 10.2901 17.6534C9.98957 17.7358 9.67218 17.7793 9.3457 17.7793C9.11415 17.7793 8.88981 17.7572 8.67109 17.7154C9.12725 19.1395 10.4511 20.1762 12.0204 20.2053C10.7931 21.1671 9.24731 21.7401 7.56705 21.7401C7.27827 21.7401 6.99217 21.7233 6.71221 21.6899C8.29808 22.7076 10.1832 23.3009 12.2078 23.3009C18.8026 23.3009 22.4092 17.8376 22.4092 13.0993C22.4092 12.9439 22.4057 12.7891 22.3987 12.6356C23.0998 12.1303 23.7076 11.499 24.1881 10.78Z" fill="#F1F2F2"/>
</g>
<defs>
<clipPath id="clip0_24_11">
<rect width="30" height="30" fill="white"/>
</clipPath>
</defs>
</svg>
