<svg width="30" height="30" viewBox="0 0 30 30" fill="none" xmlns="http://www.w3.org/2000/svg">
<path d="M15.9375 0C8.15625 0 1.875 6.28125 1.875 14.0625C1.875 17.25 2.90625 20.25 4.875 22.6875L2.90625 28.6875C2.8125 29.0625 2.90625 29.4375 3.1875 29.7188C3.28125 29.9062 3.5625 30 3.75 30C3.84375 30 4.03125 30 4.125 29.9062L10.5938 27C12.2812 27.75 14.0625 28.125 15.9375 28.125C23.7188 28.125 30 21.8438 30 14.0625C30 6.28125 23.7188 0 15.9375 0ZM24.0938 19.2188C23.7188 20.3438 22.3125 21.2812 21.0938 21.4688C20.8125 21.5625 20.5312 21.5625 20.1562 21.5625C19.4062 21.5625 18.2812 21.375 16.3125 20.5312C14.0625 19.5938 11.8125 17.625 10.0312 15.0938V15C9.46875 14.1562 8.4375 12.5625 8.4375 10.875C8.4375 8.8125 9.46875 7.78125 9.84375 7.3125C10.3125 6.84375 10.9688 6.5625 11.7188 6.5625C11.9062 6.5625 12 6.5625 12.1875 6.5625C12.8438 6.5625 13.3125 6.75 13.7812 7.6875L14.1562 8.4375C14.4375 9.1875 14.8125 10.0312 14.9062 10.125C15.1875 10.6875 15.1875 11.1562 14.9062 11.625C14.8125 11.9062 14.625 12.0938 14.4375 12.2812C14.3438 12.4688 14.25 12.5625 14.1562 12.5625C14.0625 12.6562 14.0625 12.6562 13.9688 12.75C14.25 13.2188 14.8125 14.0625 15.5625 14.7188C16.6875 15.75 17.5313 16.0312 18 16.2188C18.1875 16.0312 18.375 15.6562 18.6562 15.375L18.75 15.1875C19.2188 14.5313 19.9688 14.3438 20.7188 14.625C21.0938 14.8125 23.1562 15.75 23.1562 15.75L23.3438 15.8438C23.625 16.0312 24 16.125 24.1875 16.5C24.5625 17.3438 24.2812 18.5625 24.0938 19.2188Z" fill="#08086E"/>
</svg>
