<svg width="40" height="40" viewBox="0 0 40 40" fill="none" xmlns="http://www.w3.org/2000/svg">
<g clip-path="url(#clip0_19_50)">
<path d="M19.9771 40C8.80803 39.7854 0.0781 30.6296 0 19.9771C0.217167 8.81637 9.3243 0.0781 19.9771 0C31.1386 0.223133 39.9218 9.30993 40 19.9771C39.7794 31.1469 30.6439 39.9218 19.9771 40ZM19.9771 1.41713C9.60653 1.62133 1.44357 10.0744 1.37143 19.9771C1.57313 30.356 10.0748 38.5107 19.9771 38.5828C30.356 38.3811 38.5107 29.8794 38.5829 19.9771C38.3871 9.5989 29.8651 1.4892 19.9771 1.41713ZM15.1771 36.3428L20.2971 21.6228L25.6457 36.0228C22.0423 37.2291 18.6356 37.3022 15.1771 36.3428ZM11.2457 10.3314C9.37137 10.5862 7.5485 10.6771 5.76 10.6057C9.1559 5.7507 14.5932 3.0193 19.9771 2.97143C24.3808 3.05477 28.4861 4.71937 31.4971 7.45143C30.1007 7.3482 29.2646 7.96063 28.6629 9.0057C27.7884 11.7037 29.6362 13.7008 30.6743 15.7257C31.6558 17.5759 31.5779 19.6797 31.04 21.4857L28.48 30.2172L22.3086 11.8857C22.9516 11.8259 23.5989 11.8066 24.1829 11.7028C24.8741 11.5489 25.0258 10.9057 24.5486 10.5143C24.3963 10.3924 24.2286 10.3315 24.0457 10.3315L20.3429 10.6058H17.5315C16.7377 10.6526 14.4964 9.88587 14.3085 10.9258C14.2115 11.3264 14.5105 11.6403 14.8571 11.7029C15.4686 11.7821 16.1693 11.8721 16.7314 11.9315L19.4285 19.1543L15.68 30.2172L9.46287 11.8857C10.1207 11.8286 10.7873 11.8086 11.3829 11.7028C11.8705 11.6417 12.0838 11.398 12.0229 10.9714C11.9364 10.5922 11.5984 10.3359 11.2457 10.3314ZM4.38857 13.1657L12.5714 35.2914C9.61887 33.8361 7.28457 31.696 5.62283 29.1428C2.583 24.2918 2.26323 18.1374 4.38857 13.1657ZM36.3657 24.5257C35.0223 28.9126 32.2785 32.5461 28.4801 34.7429C28.6629 34.2552 28.9524 33.4324 29.3486 32.2743L34.1029 18.4685C34.5601 17.1276 34.8801 15.6343 35.0629 13.9886C35.1247 13.3153 35.1267 12.6364 35.0172 12.0228C36.9651 16.2243 37.5177 20.3859 36.3657 24.5257Z" fill="#00D4FF"/>
</g>
<defs>
<clipPath id="clip0_19_50">
<rect width="40" height="40" fill="white"/>
</clipPath>
</defs>
</svg>
